Coordinates
version=1
nRows=16
nColumns=40
inDegrees=yes

Units are S.I. units (second, meters, Newtons, ...)
Angles are in degrees.

endheader
time	pelvis_tilt	pelvis_list	pelvis_rotation	pelvis_tx	pelvis_ty	pelvis_tz	hip_flexion_r	hip_adduction_r	hip_rotation_r	knee_angle_r	knee_angle_r_beta	ankle_angle_r	subtalar_angle_r	mtp_angle_r	hip_flexion_l	hip_adduction_l	hip_rotation_l	knee_angle_l	knee_angle_l_beta	ankle_angle_l	subtalar_angle_l	mtp_angle_l	lumbar_extension	lumbar_bending	lumbar_rotation	arm_flex_r	arm_add_r	arm_rot_r	elbow_flex_r	pro_sup_r	wrist_flex_r	wrist_dev_r	arm_flex_l	arm_add_l	arm_rot_l	elbow_flex_l	pro_sup_l	wrist_flex_l	wrist_dev_l
      0.93000000	     -2.16306759	     -2.17044182	     -1.73017967	      0.21986933	      0.89245520	      1.13980680	     -4.73380329	      2.20520252	    -13.49956957	    -20.10899057	     -0.35096809	      9.32372965	      3.20179777	     -0.96671981	     31.90884805	      5.25464351	     13.99151289	    -33.19803657	     -0.57941504	      7.88279557	     16.64161460	     17.86910568	     -4.70918962	      1.29525694	      5.43445817	     -0.93797450	    -14.35747365	    -13.74289526	     59.16396486	     89.95437384	      0.00000000	      0.00000000	    -11.56918659	      6.54307977	     23.04882930	     27.92782421	     89.95437384	      0.00000000	      0.00000000
      0.94000000	     -2.29701296	     -2.19494860	     -2.13366880	      0.23277395	      0.89117078	      1.13964049	     -5.47966006	      2.03298889	    -13.34027609	    -20.09071856	     -0.35064919	      9.09056318	      3.54860165	     -1.29328210	     32.18271837	      5.38796313	     15.17407731	    -30.51993480	     -0.53267335	      8.02745507	     15.62746302	     17.26836969	     -4.60227416	      1.22345626	      5.94296311	     -0.91736175	    -14.51511188	    -14.01348118	     60.89100894	     89.95437384	      0.00000000	      0.00000000	    -11.69531844	      6.40391730	     23.70094662	     26.32775708	     89.95437384	      0.00000000	      0.00000000
      0.95000000	     -2.69840136	     -2.36321448	     -2.33144083	      0.24589971	      0.88912199	      1.13920638	     -5.87792626	      2.04787188	    -13.12638756	    -20.24499302	     -0.35334179	      8.74222375	      3.78512380	     -1.43052148	     32.92108184	      5.55697344	     15.87307720	    -28.46074187	     -0.49673365	      8.11805844	     14.65159312	     16.81724574	     -4.14522196	      1.29591998	      6.06083474	     -0.93395944	    -14.76272730	    -13.87187623	     62.52627011	     89.95437384	      0.00000000	      0.00000000	    -12.36978827	      6.31848462	     23.99490507	     25.51726986	     89.95437384	      0.00000000	      0.00000000
      0.96000000	     -2.82912415	     -2.23726038	     -2.78103327	      0.25929284	      0.88750274	      1.13892091	     -6.47087387	      1.65299418	    -12.68428063	    -20.59208807	     -0.35939974	      8.50537553	      4.23636905	     -1.81953121	     33.25001606	      5.70698225	     17.51545291	    -26.76213430	     -0.46708736	      7.87240443	     13.18607234	     15.90727068	     -3.96157045	      1.03262833	      6.56589831	     -1.00612352	    -14.84657088	    -14.13529346	     64.03323263	     89.95437384	      0.00000000	      0.00000000	    -12.64046673	      6.25674053	     24.53338162	     24.26425935	     89.95437384	      0.00000000	      0.00000000
      0.97000000	     -3.03028585	     -2.22685702	     -3.09004487	      0.27279524	      0.88557735	      1.13853602	     -6.88627887	      1.39119331	    -12.34376933	    -21.13249108	     -0.36883155	      8.20539311	      4.61808657	     -2.43749713	     33.73784655	      5.97416038	     19.22202346	    -25.63588124	     -0.44743053	      7.51068482	     11.48794841	     14.37619157	     -3.68844630	      0.86348547	      6.83164770	     -1.11430111	    -14.96159892	    -14.16869065	     65.46786571	     89.95437384	      0.00000000	      0.00000000	    -13.10151964	      6.18217907	     25.11890747	     23.38932395	     89.95437384	      0.00000000	      0.00000000
      0.98000000	     -3.25767346	     -2.41744319	     -3.15522979	      0.28647027	      0.88354852	      1.13776596	     -7.33990663	      1.39178485	    -12.14823168	    -21.55468601	     -0.37620024	      7.89376236	      4.60508423	     -2.46204602	     34.29359940	      6.05962098	     19.73305119	    -24.94409907	     -0.43535666	      7.63149688	     11.19850909	     14.08379022	     -3.34965777	      0.94951023	      6.73397855	     -1.03619218	    -15.04902948	    -14.12943878	     66.53659667	     89.95437384	      0.00000000	      0.00000000	    -13.82411406	      6.12094179	     25.13780690	     22.92663123	     89.95437384	      0.00000000	      0.00000000
      0.99000000	     -3.27971708	     -2.30233648	     -3.88951166	      0.30070030	      0.88192996	      1.13788385	     -7.80366687	      0.93547991	    -11.21454907	    -22.22025469	     -0.38781661	      6.23339243	      3.91284003	     -8.63762710	     34.25377292	      6.32230335	     21.15583917	    -24.25653540	     -0.42335641	      5.92992240	     10.98808312	      0.23930886	     -3.19948847	      0.65783941	      7.54881852	     -1.37461176	    -15.08456591	    -14.37635572	     67.80781894	     89.95437384	      0.00000000	      0.00000000	    -14.08608058	      6.11634813	     25.49119812	     21.88483140	     89.95437384	      0.00000000	      0.00000000
      1.00000000	     -3.34724489	     -2.38435141	     -4.03854612	      0.31490837	      0.88006057	      1.13728696	     -8.22895894	      0.77665906	    -10.73453195	    -23.01963875	     -0.40176849	      5.71730944	      3.87943489	     -8.44911904	     34.45176409	      6.23340494	     21.06155789	    -24.23881095	     -0.42304706	      5.90726098	     10.79361961	      0.23431399	     -2.99182557	      0.56780609	      7.54945068	     -1.47233441	    -15.12226690	    -14.29927609	     68.74973604	     89.95437384	      0.00000000	      0.00000000	    -14.75720485	      6.09742009	     25.52905197	     21.55823543	     89.95437384	      0.00000000	      0.00000000
      1.01000000	     -3.20865658	     -2.28765032	     -4.68870996	      0.32966025	      0.87863985	      1.13713695	     -8.71451091	      0.26564648	     -9.90184082	    -24.05608289	     -0.41985785	      4.66912197	      3.89541352	     -8.19810853	     34.14718877	      6.10723203	     20.91892486	    -24.42480535	     -0.42629327	      6.17340442	     11.10646905	      0.25370406	     -2.94407241	      0.28670845	      8.29845926	     -1.86996382	    -15.08201668	    -14.62920283	     69.71713572	     89.95437384	      0.00000000	      0.00000000	    -15.01921846	      6.08204034	     25.75409186	     20.78208435	     89.95437384	      0.00000000	      0.00000000
      1.02000000	     -3.12944027	     -2.22850271	     -5.16692479	      0.34471634	      0.87702093	      1.13680628	     -9.11732897	     -0.13619625	     -8.99438709	    -25.15298790	     -0.43900246	      3.72074147	      3.76775921	     -7.90710470	     33.91260806	      5.88046001	     20.37055916	    -24.97992830	     -0.43598200	      6.15950469	     11.75060430	      0.37690324	     -2.80335607	      0.00738401	      8.73545804	     -2.22107841	    -14.96524694	    -14.84116683	     70.46589153	     89.95437384	      0.00000000	      0.00000000	    -15.43872178	      6.05860058	     26.12975067	     20.25246509	     89.95437384	      0.00000000	      0.00000000
      1.03000000	     -3.04447054	     -2.16084650	     -5.45480619	      0.35991035	      0.87541413	      1.13603245	     -9.43860901	     -0.57414410	     -8.34474707	    -26.35626426	     -0.46000359	      2.51008577	      3.53802040	     -7.48746914	     33.65532083	      5.35855052	     18.99436151	    -25.70690354	     -0.44867011	      5.78009380	     13.12430044	      0.76271356	     -2.64208038	     -0.26254459	      8.88909369	     -2.51981926	    -14.90004282	    -14.86902553	     71.02568479	     89.95437384	      0.00000000	      0.00000000	    -15.80677388	      5.98881775	     26.74461060	     19.68392689	     89.95437384	      0.00000000	      0.00000000
      1.04000000	     -2.93871935	     -2.13110285	     -5.61861707	      0.37558643	      0.87358022	      1.13523189	     -9.76243710	     -0.92154873	     -7.65431854	    -27.64124911	     -0.48243081	      1.40708590	      3.48500932	     -7.17500384	     33.38836641	      4.98249025	     17.98364874	    -26.76786254	     -0.46718734	      5.09888895	     12.67055335	      0.80624421	     -2.43720711	     -0.50881190	      8.85515121	     -2.85993204	    -14.77071988	    -14.78228654	     71.44730438	     89.95437384	      0.00000000	      0.00000000	    -16.47351521	      6.00408286	     26.66094435	     19.61648269	     89.95437384	      0.00000000	      0.00000000
      1.05000000	     -2.81205076	     -2.16148589	     -5.79725919	      0.39104934	      0.87200055	      1.13423667	     -9.84540069	     -1.37712878	     -7.45844028	    -29.17939582	     -0.50927653	     -0.98310832	      3.57497824	     -6.67458124	     33.12356624	      4.60516826	     17.01512725	    -27.96144258	     -0.48801924	      3.83978284	     14.22078033	      1.38163633	     -2.31679744	     -0.67119863	      9.01313195	     -3.36207803	    -14.66243647	    -15.01505567	     71.92467386	     89.95437384	      0.00000000	      0.00000000	    -16.67189297	      5.94289830	     27.21228019	     19.06939986	     89.95437384	      0.00000000	      0.00000000
      1.06000000	     -2.57344711	     -2.06829304	     -5.74066427	      0.40679009	      0.87052244	      1.13289222	    -10.05262162	     -1.79515824	     -6.79826161	    -30.79040104	     -0.53739388	     -2.28813404	      3.52074941	     -6.34468145	     32.90147918	      4.16950461	     16.00124637	    -29.55355048	     -0.51580676	      3.07502751	     13.78537838	      1.41997587	     -2.25784307	     -1.00543713	      8.74668707	     -3.69732729	    -14.49366445	    -14.91946074	     72.05463454	     89.95437384	      0.00000000	      0.00000000	    -17.25183953	      5.93208483	     27.10349893	     19.20479844	     89.95437384	      0.00000000	      0.00000000
      1.07000000	     -2.77791400	     -2.13083421	     -5.50246496	      0.42196351	      0.86864468	      1.13060247	     -9.27789400	     -2.40052819	     -7.51943689	    -32.93107615	     -0.57475571	     -6.15273184	      3.96997150	     -5.75661734	     33.51695450	      3.69812510	     14.27137341	    -31.57921077	     -0.55116120	      2.19664254	     15.94397745	      2.17531453	     -1.74098695	     -1.00455664	      8.38729866	     -4.14230240	    -14.43927962	    -14.97202855	     72.09451559	     89.95437384	      0.00000000	      0.00000000	    -17.22217952	      5.79627642	     27.79798523	     18.42865027	     89.95437384	      0.00000000	      0.00000000
      1.08000000	     -2.61343895	     -2.10097359	     -5.31035671	      0.43717320	      0.86781994	      1.12870879	     -8.77255417	     -2.99052468	     -7.62580578	    -35.04134952	     -0.61158692	    -10.12916158	      4.28537470	     -5.18223618	     33.65612300	      3.40120800	     13.34264201	    -33.59074663	     -0.58626913	      1.36069455	     16.10672763	      2.36207584	     -1.67233858	     -1.20045876	      8.06909742	     -4.46574805	    -14.25707456	    -15.02090989	     71.84240038	     89.95437384	      0.00000000	      0.00000000	    -17.23388123	      5.80215420	     27.72048252	     17.98721409	     89.95437384	      0.00000000	      0.00000000
